<mxfile host="app.diagrams.net" agent="Mozilla/5.0 (Macintosh; Intel Mac OS X 10_15_7) AppleWebKit/537.36 (KHTML, like Gecko) Chrome/127.0.0.0 Safari/537.36" version="24.7.6">
  <diagram name="第 1 页" id="H_8We8UubYNgWz_qhoj8">
    <mxGraphModel dx="1140" dy="1793" grid="1" gridSize="10" guides="1" tooltips="1" connect="1" arrows="1" fold="1" page="1" pageScale="1" pageWidth="827" pageHeight="1169" math="0" shadow="0">
      <root>
        <mxCell id="0" />
        <mxCell id="1" parent="0" />
        <mxCell id="p69GbGtiznkZSxi_15MH-1" value="&lt;b style=&quot;border-color: var(--border-color);&quot;&gt;RpcSocketAddress&lt;/b&gt;" style="swimlane;fontStyle=1;align=center;verticalAlign=top;childLayout=stackLayout;horizontal=1;startSize=26;horizontalStack=0;resizeParent=1;resizeParentMax=0;resizeLast=0;collapsible=1;marginBottom=0;whiteSpace=wrap;html=1;" parent="1" vertex="1">
          <mxGeometry x="330" y="120" width="290" height="242" as="geometry">
            <mxRectangle x="350" y="320" width="150" height="30" as="alternateBounds" />
          </mxGeometry>
        </mxCell>
        <mxCell id="p69GbGtiznkZSxi_15MH-27" value="&lt;div&gt;&lt;span style=&quot;background-color: initial;&quot;&gt;+ mSockAddr&lt;/span&gt;&lt;span style=&quot;background-color: initial;&quot;&gt;: sockaddr&lt;/span&gt;&lt;/div&gt;" style="text;strokeColor=none;fillColor=none;align=left;verticalAlign=top;spacingLeft=4;spacingRight=4;overflow=hidden;rotatable=0;points=[[0,0.5],[1,0.5]];portConstraint=eastwest;whiteSpace=wrap;html=1;" parent="p69GbGtiznkZSxi_15MH-1" vertex="1">
          <mxGeometry y="26" width="290" height="26" as="geometry" />
        </mxCell>
        <mxCell id="p69GbGtiznkZSxi_15MH-24" value="&lt;div&gt;&lt;span style=&quot;background-color: initial;&quot;&gt;+ mSize&lt;/span&gt;&lt;span style=&quot;background-color: initial;&quot;&gt;: size_t&lt;/span&gt;&lt;/div&gt;" style="text;strokeColor=none;fillColor=none;align=left;verticalAlign=top;spacingLeft=4;spacingRight=4;overflow=hidden;rotatable=0;points=[[0,0.5],[1,0.5]];portConstraint=eastwest;whiteSpace=wrap;html=1;" parent="p69GbGtiznkZSxi_15MH-1" vertex="1">
          <mxGeometry y="52" width="290" height="26" as="geometry" />
        </mxCell>
        <mxCell id="p69GbGtiznkZSxi_15MH-28" value="&lt;div&gt;&lt;span style=&quot;background-color: initial;&quot;&gt;+ mAddr&lt;/span&gt;&lt;span style=&quot;background-color: initial;&quot;&gt;: char*&lt;/span&gt;&lt;/div&gt;" style="text;strokeColor=none;fillColor=none;align=left;verticalAlign=top;spacingLeft=4;spacingRight=4;overflow=hidden;rotatable=0;points=[[0,0.5],[1,0.5]];portConstraint=eastwest;whiteSpace=wrap;html=1;" parent="p69GbGtiznkZSxi_15MH-1" vertex="1">
          <mxGeometry y="78" width="290" height="26" as="geometry" />
        </mxCell>
        <mxCell id="p69GbGtiznkZSxi_15MH-30" value="&lt;div&gt;&lt;span style=&quot;background-color: initial;&quot;&gt;+ mPort&lt;/span&gt;&lt;span style=&quot;background-color: initial;&quot;&gt;: int&lt;/span&gt;&lt;span style=&quot;background-color: initial;&quot;&gt;*&lt;/span&gt;&lt;/div&gt;" style="text;strokeColor=none;fillColor=none;align=left;verticalAlign=top;spacingLeft=4;spacingRight=4;overflow=hidden;rotatable=0;points=[[0,0.5],[1,0.5]];portConstraint=eastwest;whiteSpace=wrap;html=1;" parent="p69GbGtiznkZSxi_15MH-1" vertex="1">
          <mxGeometry y="104" width="290" height="26" as="geometry" />
        </mxCell>
        <mxCell id="p69GbGtiznkZSxi_15MH-3" value="" style="line;strokeWidth=1;fillColor=none;align=left;verticalAlign=middle;spacingTop=-1;spacingLeft=3;spacingRight=3;rotatable=0;labelPosition=right;points=[];portConstraint=eastwest;strokeColor=inherit;" parent="p69GbGtiznkZSxi_15MH-1" vertex="1">
          <mxGeometry y="130" width="290" height="8" as="geometry" />
        </mxCell>
        <mxCell id="p69GbGtiznkZSxi_15MH-4" value="+ virtual ~RpcSocketAddress() {}" style="text;strokeColor=none;fillColor=none;align=left;verticalAlign=top;spacingLeft=4;spacingRight=4;overflow=hidden;rotatable=0;points=[[0,0.5],[1,0.5]];portConstraint=eastwest;whiteSpace=wrap;html=1;" parent="p69GbGtiznkZSxi_15MH-1" vertex="1">
          <mxGeometry y="138" width="290" height="26" as="geometry" />
        </mxCell>
        <mxCell id="p69GbGtiznkZSxi_15MH-6" value="+&amp;nbsp;virtual std::string toString()" style="text;strokeColor=none;fillColor=none;align=left;verticalAlign=top;spacingLeft=4;spacingRight=4;overflow=hidden;rotatable=0;points=[[0,0.5],[1,0.5]];portConstraint=eastwest;whiteSpace=wrap;html=1;" parent="p69GbGtiznkZSxi_15MH-1" vertex="1">
          <mxGeometry y="164" width="290" height="26" as="geometry" />
        </mxCell>
        <mxCell id="p69GbGtiznkZSxi_15MH-7" value="+ virtual const sockaddr* addr()" style="text;strokeColor=none;fillColor=none;align=left;verticalAlign=top;spacingLeft=4;spacingRight=4;overflow=hidden;rotatable=0;points=[[0,0.5],[1,0.5]];portConstraint=eastwest;whiteSpace=wrap;html=1;" parent="p69GbGtiznkZSxi_15MH-1" vertex="1">
          <mxGeometry y="190" width="290" height="26" as="geometry" />
        </mxCell>
        <mxCell id="p69GbGtiznkZSxi_15MH-8" value="+ virtual size_t addrSize()" style="text;strokeColor=none;fillColor=none;align=left;verticalAlign=top;spacingLeft=4;spacingRight=4;overflow=hidden;rotatable=0;points=[[0,0.5],[1,0.5]];portConstraint=eastwest;whiteSpace=wrap;html=1;" parent="p69GbGtiznkZSxi_15MH-1" vertex="1">
          <mxGeometry y="216" width="290" height="26" as="geometry" />
        </mxCell>
        <mxCell id="p69GbGtiznkZSxi_15MH-9" value="UnixSocketAddress" style="swimlane;fontStyle=1;align=center;verticalAlign=top;childLayout=stackLayout;horizontal=1;startSize=26;horizontalStack=0;resizeParent=1;resizeParentMax=0;resizeLast=0;collapsible=1;marginBottom=0;whiteSpace=wrap;html=1;" parent="1" vertex="1">
          <mxGeometry x="190" y="550" width="160" height="60" as="geometry" />
        </mxCell>
        <mxCell id="p69GbGtiznkZSxi_15MH-11" value="" style="line;strokeWidth=1;fillColor=none;align=left;verticalAlign=middle;spacingTop=-1;spacingLeft=3;spacingRight=3;rotatable=0;labelPosition=right;points=[];portConstraint=eastwest;strokeColor=inherit;" parent="p69GbGtiznkZSxi_15MH-9" vertex="1">
          <mxGeometry y="26" width="160" height="8" as="geometry" />
        </mxCell>
        <mxCell id="p69GbGtiznkZSxi_15MH-12" value="+&amp;nbsp;" style="text;strokeColor=none;fillColor=none;align=left;verticalAlign=top;spacingLeft=4;spacingRight=4;overflow=hidden;rotatable=0;points=[[0,0.5],[1,0.5]];portConstraint=eastwest;whiteSpace=wrap;html=1;" parent="p69GbGtiznkZSxi_15MH-9" vertex="1">
          <mxGeometry y="34" width="160" height="26" as="geometry" />
        </mxCell>
        <mxCell id="p69GbGtiznkZSxi_15MH-13" value="Extends" style="endArrow=block;endSize=16;endFill=0;html=1;rounded=0;exitX=0.5;exitY=0;exitDx=0;exitDy=0;" parent="1" source="p69GbGtiznkZSxi_15MH-9" target="p69GbGtiznkZSxi_15MH-8" edge="1">
          <mxGeometry width="160" relative="1" as="geometry">
            <mxPoint x="430" y="500" as="sourcePoint" />
            <mxPoint x="420" y="400" as="targetPoint" />
          </mxGeometry>
        </mxCell>
        <mxCell id="p69GbGtiznkZSxi_15MH-14" value="VsockSocketAddress" style="swimlane;fontStyle=1;align=center;verticalAlign=top;childLayout=stackLayout;horizontal=1;startSize=26;horizontalStack=0;resizeParent=1;resizeParentMax=0;resizeLast=0;collapsible=1;marginBottom=0;whiteSpace=wrap;html=1;" parent="1" vertex="1">
          <mxGeometry x="414" y="550" width="160" height="60" as="geometry" />
        </mxCell>
        <mxCell id="p69GbGtiznkZSxi_15MH-15" value="" style="line;strokeWidth=1;fillColor=none;align=left;verticalAlign=middle;spacingTop=-1;spacingLeft=3;spacingRight=3;rotatable=0;labelPosition=right;points=[];portConstraint=eastwest;strokeColor=inherit;" parent="p69GbGtiznkZSxi_15MH-14" vertex="1">
          <mxGeometry y="26" width="160" height="8" as="geometry" />
        </mxCell>
        <mxCell id="p69GbGtiznkZSxi_15MH-16" value="+&amp;nbsp;" style="text;strokeColor=none;fillColor=none;align=left;verticalAlign=top;spacingLeft=4;spacingRight=4;overflow=hidden;rotatable=0;points=[[0,0.5],[1,0.5]];portConstraint=eastwest;whiteSpace=wrap;html=1;" parent="p69GbGtiznkZSxi_15MH-14" vertex="1">
          <mxGeometry y="34" width="160" height="26" as="geometry" />
        </mxCell>
        <mxCell id="p69GbGtiznkZSxi_15MH-17" value="&lt;div&gt;InetSocketAddress&lt;/div&gt;" style="swimlane;fontStyle=1;align=center;verticalAlign=top;childLayout=stackLayout;horizontal=1;startSize=26;horizontalStack=0;resizeParent=1;resizeParentMax=0;resizeLast=0;collapsible=1;marginBottom=0;whiteSpace=wrap;html=1;" parent="1" vertex="1">
          <mxGeometry x="630" y="550" width="160" height="60" as="geometry" />
        </mxCell>
        <mxCell id="p69GbGtiznkZSxi_15MH-18" value="" style="line;strokeWidth=1;fillColor=none;align=left;verticalAlign=middle;spacingTop=-1;spacingLeft=3;spacingRight=3;rotatable=0;labelPosition=right;points=[];portConstraint=eastwest;strokeColor=inherit;" parent="p69GbGtiznkZSxi_15MH-17" vertex="1">
          <mxGeometry y="26" width="160" height="8" as="geometry" />
        </mxCell>
        <mxCell id="p69GbGtiznkZSxi_15MH-19" value="+&amp;nbsp;" style="text;strokeColor=none;fillColor=none;align=left;verticalAlign=top;spacingLeft=4;spacingRight=4;overflow=hidden;rotatable=0;points=[[0,0.5],[1,0.5]];portConstraint=eastwest;whiteSpace=wrap;html=1;" parent="p69GbGtiznkZSxi_15MH-17" vertex="1">
          <mxGeometry y="34" width="160" height="26" as="geometry" />
        </mxCell>
        <mxCell id="p69GbGtiznkZSxi_15MH-20" value="Extends" style="endArrow=block;endSize=16;endFill=0;html=1;rounded=0;exitX=0.5;exitY=0;exitDx=0;exitDy=0;" parent="1" source="p69GbGtiznkZSxi_15MH-17" target="p69GbGtiznkZSxi_15MH-8" edge="1">
          <mxGeometry width="160" relative="1" as="geometry">
            <mxPoint x="280" y="560" as="sourcePoint" />
            <mxPoint x="490" y="430" as="targetPoint" />
          </mxGeometry>
        </mxCell>
        <mxCell id="p69GbGtiznkZSxi_15MH-21" value="Extends" style="endArrow=block;endSize=16;endFill=0;html=1;rounded=0;exitX=0.5;exitY=0;exitDx=0;exitDy=0;entryX=0.471;entryY=0.991;entryDx=0;entryDy=0;entryPerimeter=0;" parent="1" source="p69GbGtiznkZSxi_15MH-14" target="p69GbGtiznkZSxi_15MH-8" edge="1">
          <mxGeometry width="160" relative="1" as="geometry">
            <mxPoint x="290" y="570" as="sourcePoint" />
            <mxPoint x="480" y="450" as="targetPoint" />
          </mxGeometry>
        </mxCell>
        <mxCell id="p69GbGtiznkZSxi_15MH-32" value="RpcServer" style="swimlane;fontStyle=1;align=center;verticalAlign=top;childLayout=stackLayout;horizontal=1;startSize=26;horizontalStack=0;resizeParent=1;resizeParentMax=0;resizeLast=0;collapsible=1;marginBottom=0;whiteSpace=wrap;html=1;" parent="1" vertex="1">
          <mxGeometry x="820" y="90" width="650" height="570" as="geometry" />
        </mxCell>
        <mxCell id="p69GbGtiznkZSxi_15MH-33" value="+ field: type" style="text;strokeColor=none;fillColor=none;align=left;verticalAlign=top;spacingLeft=4;spacingRight=4;overflow=hidden;rotatable=0;points=[[0,0.5],[1,0.5]];portConstraint=eastwest;whiteSpace=wrap;html=1;" parent="p69GbGtiznkZSxi_15MH-32" vertex="1">
          <mxGeometry y="26" width="650" height="26" as="geometry" />
        </mxCell>
        <mxCell id="p69GbGtiznkZSxi_15MH-34" value="" style="line;strokeWidth=1;fillColor=none;align=left;verticalAlign=middle;spacingTop=-1;spacingLeft=3;spacingRight=3;rotatable=0;labelPosition=right;points=[];portConstraint=eastwest;strokeColor=inherit;" parent="p69GbGtiznkZSxi_15MH-32" vertex="1">
          <mxGeometry y="52" width="650" height="8" as="geometry" />
        </mxCell>
        <mxCell id="p69GbGtiznkZSxi_15MH-35" value="+&amp;nbsp;&lt;span style=&quot;background-color: initial;&quot;&gt;static sp&amp;lt;RpcServer&amp;gt; make(&lt;/span&gt;&lt;div&gt;&amp;nbsp; &amp;nbsp; &amp;nbsp; &amp;nbsp; &amp;nbsp; &amp;nbsp; std::unique_ptr&amp;lt;RpcTransportCtxFactory&amp;gt; rpcTransportCtxFactory = nullptr)&lt;/div&gt;" style="text;strokeColor=none;fillColor=none;align=left;verticalAlign=top;spacingLeft=4;spacingRight=4;overflow=hidden;rotatable=0;points=[[0,0.5],[1,0.5]];portConstraint=eastwest;whiteSpace=wrap;html=1;" parent="p69GbGtiznkZSxi_15MH-32" vertex="1">
          <mxGeometry y="60" width="650" height="40" as="geometry" />
        </mxCell>
        <mxCell id="p69GbGtiznkZSxi_15MH-36" value="+&amp;nbsp;&lt;span style=&quot;background-color: initial;&quot;&gt;static void establishConnection(&lt;/span&gt;&lt;div&gt;&amp;nbsp; &amp;nbsp; &amp;nbsp; &amp;nbsp; &amp;nbsp; &amp;nbsp; sp&amp;lt;RpcServer&amp;gt;&amp;amp;&amp;amp; server, RpcTransportFd clientFd,&lt;/div&gt;&lt;div&gt;&amp;nbsp; &amp;nbsp; &amp;nbsp; &amp;nbsp; &amp;nbsp; &amp;nbsp; std::array&amp;lt;uint8_t, kRpcAddressSize&amp;gt; addr, size_t addrLen,&lt;/div&gt;&lt;div&gt;&amp;nbsp; &amp;nbsp; &amp;nbsp; &amp;nbsp; &amp;nbsp; &amp;nbsp; std::function&amp;lt;void(sp&amp;lt;RpcSession&amp;gt;&amp;amp;&amp;amp;, RpcSession::PreJoinSetupResult&amp;amp;&amp;amp;)&amp;gt;&amp;amp;&amp;amp; joinFn);&lt;/div&gt;" style="text;strokeColor=none;fillColor=none;align=left;verticalAlign=top;spacingLeft=4;spacingRight=4;overflow=hidden;rotatable=0;points=[[0,0.5],[1,0.5]];portConstraint=eastwest;whiteSpace=wrap;html=1;" parent="p69GbGtiznkZSxi_15MH-32" vertex="1">
          <mxGeometry y="100" width="650" height="70" as="geometry" />
        </mxCell>
        <mxCell id="DIT8Or7SR0M83sle03Dc-7" value="+&amp;nbsp;[[nodiscard]] status_t setupUnixDomainSocketBootstrapServer(base::unique_fd serverFd);" style="text;strokeColor=none;fillColor=none;align=left;verticalAlign=top;spacingLeft=4;spacingRight=4;overflow=hidden;rotatable=0;points=[[0,0.5],[1,0.5]];portConstraint=eastwest;whiteSpace=wrap;html=1;" parent="p69GbGtiznkZSxi_15MH-32" vertex="1">
          <mxGeometry y="170" width="650" height="30" as="geometry" />
        </mxCell>
        <mxCell id="DIT8Or7SR0M83sle03Dc-8" value="+&amp;nbsp;[[nodiscard]] status_t setupUnixDomainServer(const char* path);" style="text;strokeColor=none;fillColor=none;align=left;verticalAlign=top;spacingLeft=4;spacingRight=4;overflow=hidden;rotatable=0;points=[[0,0.5],[1,0.5]];portConstraint=eastwest;whiteSpace=wrap;html=1;" parent="p69GbGtiznkZSxi_15MH-32" vertex="1">
          <mxGeometry y="200" width="650" height="30" as="geometry" />
        </mxCell>
        <mxCell id="DIT8Or7SR0M83sle03Dc-9" value="+&amp;nbsp;[[nodiscard]] status_t setupVsockServer(unsigned int bindCid, unsigned int port);" style="text;strokeColor=none;fillColor=none;align=left;verticalAlign=top;spacingLeft=4;spacingRight=4;overflow=hidden;rotatable=0;points=[[0,0.5],[1,0.5]];portConstraint=eastwest;whiteSpace=wrap;html=1;" parent="p69GbGtiznkZSxi_15MH-32" vertex="1">
          <mxGeometry y="230" width="650" height="30" as="geometry" />
        </mxCell>
        <mxCell id="DIT8Or7SR0M83sle03Dc-10" value="+&amp;nbsp;&lt;span style=&quot;background-color: initial;&quot;&gt;[[nodiscard]] status_t setupInetServer(const char* address, unsigned int port,&lt;/span&gt;&lt;div&gt;&amp;nbsp; &amp;nbsp; &amp;nbsp; &amp;nbsp; &amp;nbsp; &amp;nbsp; &amp;nbsp; &amp;nbsp; &amp;nbsp; &amp;nbsp; &amp;nbsp; &amp;nbsp; &amp;nbsp; &amp;nbsp; &amp;nbsp; &amp;nbsp; &amp;nbsp; &amp;nbsp; &amp;nbsp; &amp;nbsp; &amp;nbsp; &amp;nbsp;unsigned int* assignedPort = nullptr);&lt;/div&gt;" style="text;strokeColor=none;fillColor=none;align=left;verticalAlign=top;spacingLeft=4;spacingRight=4;overflow=hidden;rotatable=0;points=[[0,0.5],[1,0.5]];portConstraint=eastwest;whiteSpace=wrap;html=1;" parent="p69GbGtiznkZSxi_15MH-32" vertex="1">
          <mxGeometry y="260" width="650" height="40" as="geometry" />
        </mxCell>
        <mxCell id="DIT8Or7SR0M83sle03Dc-11" value="+&amp;nbsp;[[nodiscard]] bool hasServer();" style="text;strokeColor=none;fillColor=none;align=left;verticalAlign=top;spacingLeft=4;spacingRight=4;overflow=hidden;rotatable=0;points=[[0,0.5],[1,0.5]];portConstraint=eastwest;whiteSpace=wrap;html=1;" parent="p69GbGtiznkZSxi_15MH-32" vertex="1">
          <mxGeometry y="300" width="650" height="30" as="geometry" />
        </mxCell>
        <mxCell id="DIT8Or7SR0M83sle03Dc-12" value="+&amp;nbsp;[[nodiscard]] base::unique_fd releaseServer();" style="text;strokeColor=none;fillColor=none;align=left;verticalAlign=top;spacingLeft=4;spacingRight=4;overflow=hidden;rotatable=0;points=[[0,0.5],[1,0.5]];portConstraint=eastwest;whiteSpace=wrap;html=1;" parent="p69GbGtiznkZSxi_15MH-32" vertex="1">
          <mxGeometry y="330" width="650" height="30" as="geometry" />
        </mxCell>
        <mxCell id="DIT8Or7SR0M83sle03Dc-13" value="+&amp;nbsp;void setMaxThreads(size_t threads);" style="text;strokeColor=none;fillColor=none;align=left;verticalAlign=top;spacingLeft=4;spacingRight=4;overflow=hidden;rotatable=0;points=[[0,0.5],[1,0.5]];portConstraint=eastwest;whiteSpace=wrap;html=1;" parent="p69GbGtiznkZSxi_15MH-32" vertex="1">
          <mxGeometry y="360" width="650" height="30" as="geometry" />
        </mxCell>
        <mxCell id="DIT8Or7SR0M83sle03Dc-14" value="+&amp;nbsp;size_t getMaxThreads();" style="text;strokeColor=none;fillColor=none;align=left;verticalAlign=top;spacingLeft=4;spacingRight=4;overflow=hidden;rotatable=0;points=[[0,0.5],[1,0.5]];portConstraint=eastwest;whiteSpace=wrap;html=1;" parent="p69GbGtiznkZSxi_15MH-32" vertex="1">
          <mxGeometry y="390" width="650" height="30" as="geometry" />
        </mxCell>
        <mxCell id="DIT8Or7SR0M83sle03Dc-15" value="+&amp;nbsp;void setRootObject(const sp&amp;lt;IBinder&amp;gt;&amp;amp; binder);" style="text;strokeColor=none;fillColor=none;align=left;verticalAlign=top;spacingLeft=4;spacingRight=4;overflow=hidden;rotatable=0;points=[[0,0.5],[1,0.5]];portConstraint=eastwest;whiteSpace=wrap;html=1;" parent="p69GbGtiznkZSxi_15MH-32" vertex="1">
          <mxGeometry y="420" width="650" height="30" as="geometry" />
        </mxCell>
        <mxCell id="DIT8Or7SR0M83sle03Dc-16" value="+&amp;nbsp;std::vector&amp;lt;uint8_t&amp;gt; getCertificate(RpcCertificateFormat);" style="text;strokeColor=none;fillColor=none;align=left;verticalAlign=top;spacingLeft=4;spacingRight=4;overflow=hidden;rotatable=0;points=[[0,0.5],[1,0.5]];portConstraint=eastwest;whiteSpace=wrap;html=1;" parent="p69GbGtiznkZSxi_15MH-32" vertex="1">
          <mxGeometry y="450" width="650" height="30" as="geometry" />
        </mxCell>
        <mxCell id="DIT8Or7SR0M83sle03Dc-17" value="+&amp;nbsp;void start();" style="text;strokeColor=none;fillColor=none;align=left;verticalAlign=top;spacingLeft=4;spacingRight=4;overflow=hidden;rotatable=0;points=[[0,0.5],[1,0.5]];portConstraint=eastwest;whiteSpace=wrap;html=1;" parent="p69GbGtiznkZSxi_15MH-32" vertex="1">
          <mxGeometry y="480" width="650" height="30" as="geometry" />
        </mxCell>
        <mxCell id="DIT8Or7SR0M83sle03Dc-18" value="+&amp;nbsp;void join();" style="text;strokeColor=none;fillColor=none;align=left;verticalAlign=top;spacingLeft=4;spacingRight=4;overflow=hidden;rotatable=0;points=[[0,0.5],[1,0.5]];portConstraint=eastwest;whiteSpace=wrap;html=1;" parent="p69GbGtiznkZSxi_15MH-32" vertex="1">
          <mxGeometry y="510" width="650" height="30" as="geometry" />
        </mxCell>
        <mxCell id="DIT8Or7SR0M83sle03Dc-19" value="+&amp;nbsp;[[nodiscard]] bool shutdown();" style="text;strokeColor=none;fillColor=none;align=left;verticalAlign=top;spacingLeft=4;spacingRight=4;overflow=hidden;rotatable=0;points=[[0,0.5],[1,0.5]];portConstraint=eastwest;whiteSpace=wrap;html=1;" parent="p69GbGtiznkZSxi_15MH-32" vertex="1">
          <mxGeometry y="540" width="650" height="30" as="geometry" />
        </mxCell>
        <mxCell id="DIT8Or7SR0M83sle03Dc-1" value="RpcTransportCtxFactory" style="swimlane;fontStyle=1;align=center;verticalAlign=top;childLayout=stackLayout;horizontal=1;startSize=26;horizontalStack=0;resizeParent=1;resizeParentMax=0;resizeLast=0;collapsible=1;marginBottom=0;whiteSpace=wrap;html=1;" parent="1" vertex="1">
          <mxGeometry x="2170" y="90" width="360" height="138" as="geometry" />
        </mxCell>
        <mxCell id="DIT8Or7SR0M83sle03Dc-2" value="+ field: type" style="text;strokeColor=none;fillColor=none;align=left;verticalAlign=top;spacingLeft=4;spacingRight=4;overflow=hidden;rotatable=0;points=[[0,0.5],[1,0.5]];portConstraint=eastwest;whiteSpace=wrap;html=1;" parent="DIT8Or7SR0M83sle03Dc-1" vertex="1">
          <mxGeometry y="26" width="360" height="26" as="geometry" />
        </mxCell>
        <mxCell id="DIT8Or7SR0M83sle03Dc-3" value="" style="line;strokeWidth=1;fillColor=none;align=left;verticalAlign=middle;spacingTop=-1;spacingLeft=3;spacingRight=3;rotatable=0;labelPosition=right;points=[];portConstraint=eastwest;strokeColor=inherit;" parent="DIT8Or7SR0M83sle03Dc-1" vertex="1">
          <mxGeometry y="52" width="360" height="8" as="geometry" />
        </mxCell>
        <mxCell id="DIT8Or7SR0M83sle03Dc-4" value="+ virtual ~RpcTransportCtxFactory() = default;" style="text;strokeColor=none;fillColor=none;align=left;verticalAlign=top;spacingLeft=4;spacingRight=4;overflow=hidden;rotatable=0;points=[[0,0.5],[1,0.5]];portConstraint=eastwest;whiteSpace=wrap;html=1;" parent="DIT8Or7SR0M83sle03Dc-1" vertex="1">
          <mxGeometry y="60" width="360" height="26" as="geometry" />
        </mxCell>
        <mxCell id="DIT8Or7SR0M83sle03Dc-5" value="+ virtual std::unique_ptr&amp;lt;RpcTransportCtx&amp;gt; newServerCtx()" style="text;strokeColor=none;fillColor=none;align=left;verticalAlign=top;spacingLeft=4;spacingRight=4;overflow=hidden;rotatable=0;points=[[0,0.5],[1,0.5]];portConstraint=eastwest;whiteSpace=wrap;html=1;" parent="DIT8Or7SR0M83sle03Dc-1" vertex="1">
          <mxGeometry y="86" width="360" height="26" as="geometry" />
        </mxCell>
        <mxCell id="DIT8Or7SR0M83sle03Dc-6" value="+ virtual std::unique_ptr&amp;lt;RpcTransportCtx&amp;gt; newClientCtx()" style="text;strokeColor=none;fillColor=none;align=left;verticalAlign=top;spacingLeft=4;spacingRight=4;overflow=hidden;rotatable=0;points=[[0,0.5],[1,0.5]];portConstraint=eastwest;whiteSpace=wrap;html=1;" parent="DIT8Or7SR0M83sle03Dc-1" vertex="1">
          <mxGeometry y="112" width="360" height="26" as="geometry" />
        </mxCell>
        <mxCell id="Xz2xReRFm8YaMoCnnHiE-1" value="RpcTransportCtxFactoryTls" style="swimlane;fontStyle=1;align=center;verticalAlign=top;childLayout=stackLayout;horizontal=1;startSize=26;horizontalStack=0;resizeParent=1;resizeParentMax=0;resizeLast=0;collapsible=1;marginBottom=0;whiteSpace=wrap;html=1;" vertex="1" parent="1">
          <mxGeometry x="2180" y="332" width="310" height="78" as="geometry" />
        </mxCell>
        <mxCell id="Xz2xReRFm8YaMoCnnHiE-2" value="- mCertVerifier:&amp;nbsp;RpcCertificateVerifier" style="text;strokeColor=none;fillColor=none;align=left;verticalAlign=top;spacingLeft=4;spacingRight=4;overflow=hidden;rotatable=0;points=[[0,0.5],[1,0.5]];portConstraint=eastwest;whiteSpace=wrap;html=1;" vertex="1" parent="Xz2xReRFm8YaMoCnnHiE-1">
          <mxGeometry y="26" width="310" height="26" as="geometry" />
        </mxCell>
        <mxCell id="Xz2xReRFm8YaMoCnnHiE-13" value="- mAuth:&amp;nbsp;RpcAuth" style="text;strokeColor=none;fillColor=none;align=left;verticalAlign=top;spacingLeft=4;spacingRight=4;overflow=hidden;rotatable=0;points=[[0,0.5],[1,0.5]];portConstraint=eastwest;whiteSpace=wrap;html=1;" vertex="1" parent="Xz2xReRFm8YaMoCnnHiE-1">
          <mxGeometry y="52" width="310" height="26" as="geometry" />
        </mxCell>
        <mxCell id="Xz2xReRFm8YaMoCnnHiE-5" value="" style="endArrow=block;dashed=1;endFill=0;endSize=12;html=1;rounded=0;entryX=0.474;entryY=1.121;entryDx=0;entryDy=0;entryPerimeter=0;" edge="1" parent="1" source="Xz2xReRFm8YaMoCnnHiE-1" target="DIT8Or7SR0M83sle03Dc-6">
          <mxGeometry width="160" relative="1" as="geometry">
            <mxPoint x="2320" y="340" as="sourcePoint" />
            <mxPoint x="2390" y="250" as="targetPoint" />
          </mxGeometry>
        </mxCell>
        <mxCell id="Xz2xReRFm8YaMoCnnHiE-6" value="RpcCertificateVerifier" style="swimlane;fontStyle=1;align=center;verticalAlign=top;childLayout=stackLayout;horizontal=1;startSize=26;horizontalStack=0;resizeParent=1;resizeParentMax=0;resizeLast=0;collapsible=1;marginBottom=0;whiteSpace=wrap;html=1;" vertex="1" parent="1">
          <mxGeometry x="2640" y="90" width="350" height="52" as="geometry" />
        </mxCell>
        <mxCell id="Xz2xReRFm8YaMoCnnHiE-9" value="+ &amp;nbsp;virtual status_t verify(const SSL* ssl, uint8_t* outAlert) = 0;" style="text;strokeColor=none;fillColor=none;align=left;verticalAlign=top;spacingLeft=4;spacingRight=4;overflow=hidden;rotatable=0;points=[[0,0.5],[1,0.5]];portConstraint=eastwest;whiteSpace=wrap;html=1;" vertex="1" parent="Xz2xReRFm8YaMoCnnHiE-6">
          <mxGeometry y="26" width="350" height="26" as="geometry" />
        </mxCell>
        <mxCell id="Xz2xReRFm8YaMoCnnHiE-10" value="RpcAuth" style="swimlane;fontStyle=1;align=center;verticalAlign=top;childLayout=stackLayout;horizontal=1;startSize=26;horizontalStack=0;resizeParent=1;resizeParentMax=0;resizeLast=0;collapsible=1;marginBottom=0;whiteSpace=wrap;html=1;" vertex="1" parent="1">
          <mxGeometry x="2640" y="190" width="350" height="52" as="geometry" />
        </mxCell>
        <mxCell id="Xz2xReRFm8YaMoCnnHiE-11" value="+ [[nodiscard]] virtual status_t configure(SSL_CTX* ctx) = 0;" style="text;strokeColor=none;fillColor=none;align=left;verticalAlign=top;spacingLeft=4;spacingRight=4;overflow=hidden;rotatable=0;points=[[0,0.5],[1,0.5]];portConstraint=eastwest;whiteSpace=wrap;html=1;" vertex="1" parent="Xz2xReRFm8YaMoCnnHiE-10">
          <mxGeometry y="26" width="350" height="26" as="geometry" />
        </mxCell>
        <mxCell id="Xz2xReRFm8YaMoCnnHiE-18" value="Use" style="endArrow=open;endSize=12;dashed=1;html=1;rounded=0;exitX=1;exitY=0.5;exitDx=0;exitDy=0;entryX=0;entryY=0.5;entryDx=0;entryDy=0;" edge="1" parent="1" source="Xz2xReRFm8YaMoCnnHiE-2" target="Xz2xReRFm8YaMoCnnHiE-9">
          <mxGeometry width="160" relative="1" as="geometry">
            <mxPoint x="2480" y="250" as="sourcePoint" />
            <mxPoint x="2640" y="250" as="targetPoint" />
          </mxGeometry>
        </mxCell>
        <mxCell id="Xz2xReRFm8YaMoCnnHiE-19" value="Use" style="endArrow=open;endSize=12;dashed=1;html=1;rounded=0;exitX=1;exitY=0.5;exitDx=0;exitDy=0;entryX=0;entryY=0.5;entryDx=0;entryDy=0;" edge="1" parent="1" source="Xz2xReRFm8YaMoCnnHiE-13" target="Xz2xReRFm8YaMoCnnHiE-11">
          <mxGeometry width="160" relative="1" as="geometry">
            <mxPoint x="2500" y="381" as="sourcePoint" />
            <mxPoint x="2650" y="139" as="targetPoint" />
          </mxGeometry>
        </mxCell>
        <mxCell id="Xz2xReRFm8YaMoCnnHiE-20" value="RpcTransportCtx" style="swimlane;fontStyle=1;align=center;verticalAlign=top;childLayout=stackLayout;horizontal=1;startSize=26;horizontalStack=0;resizeParent=1;resizeParentMax=0;resizeLast=0;collapsible=1;marginBottom=0;whiteSpace=wrap;html=1;" vertex="1" parent="1">
          <mxGeometry x="1700" y="90" width="380" height="106" as="geometry" />
        </mxCell>
        <mxCell id="Xz2xReRFm8YaMoCnnHiE-23" value="+&amp;nbsp;&lt;span style=&quot;background-color: initial;&quot;&gt;[[nodiscard]] virtual std::unique_ptr&amp;lt;RpcTransport&amp;gt; newTransport(&lt;/span&gt;&lt;div&gt;&amp;nbsp; &amp;nbsp; &amp;nbsp; &amp;nbsp; &amp;nbsp; &amp;nbsp; android::RpcTransportFd fd, FdTrigger *fdTrigger) const = 0;&lt;/div&gt;" style="text;strokeColor=none;fillColor=none;align=left;verticalAlign=top;spacingLeft=4;spacingRight=4;overflow=hidden;rotatable=0;points=[[0,0.5],[1,0.5]];portConstraint=eastwest;whiteSpace=wrap;html=1;" vertex="1" parent="Xz2xReRFm8YaMoCnnHiE-20">
          <mxGeometry y="26" width="380" height="40" as="geometry" />
        </mxCell>
        <mxCell id="Xz2xReRFm8YaMoCnnHiE-24" value="+&amp;nbsp;&lt;span style=&quot;background-color: initial;&quot;&gt;[[nodiscard]] virtual std::vector&amp;lt;uint8_t&amp;gt; getCertificate(&lt;/span&gt;&lt;div&gt;&amp;nbsp; &amp;nbsp; &amp;nbsp; &amp;nbsp; &amp;nbsp; &amp;nbsp; RpcCertificateFormat format) const = 0;&lt;/div&gt;" style="text;strokeColor=none;fillColor=none;align=left;verticalAlign=top;spacingLeft=4;spacingRight=4;overflow=hidden;rotatable=0;points=[[0,0.5],[1,0.5]];portConstraint=eastwest;whiteSpace=wrap;html=1;" vertex="1" parent="Xz2xReRFm8YaMoCnnHiE-20">
          <mxGeometry y="66" width="380" height="40" as="geometry" />
        </mxCell>
        <mxCell id="Xz2xReRFm8YaMoCnnHiE-25" value="Use" style="endArrow=open;endSize=12;dashed=1;html=1;rounded=0;exitX=0;exitY=0.5;exitDx=0;exitDy=0;entryX=1;entryY=0.5;entryDx=0;entryDy=0;" edge="1" parent="1" source="DIT8Or7SR0M83sle03Dc-5" target="Xz2xReRFm8YaMoCnnHiE-24">
          <mxGeometry width="160" relative="1" as="geometry">
            <mxPoint x="2020" y="280" as="sourcePoint" />
            <mxPoint x="2180" y="280" as="targetPoint" />
          </mxGeometry>
        </mxCell>
        <mxCell id="Xz2xReRFm8YaMoCnnHiE-26" value="RpcTransportCtxTls" style="swimlane;fontStyle=1;align=center;verticalAlign=top;childLayout=stackLayout;horizontal=1;startSize=26;horizontalStack=0;resizeParent=1;resizeParentMax=0;resizeLast=0;collapsible=1;marginBottom=0;whiteSpace=wrap;html=1;" vertex="1" parent="1">
          <mxGeometry x="1630" y="332" width="400" height="174" as="geometry" />
        </mxCell>
        <mxCell id="Xz2xReRFm8YaMoCnnHiE-27" value="# mCtx: SSL_CTX" style="text;strokeColor=none;fillColor=none;align=left;verticalAlign=top;spacingLeft=4;spacingRight=4;overflow=hidden;rotatable=0;points=[[0,0.5],[1,0.5]];portConstraint=eastwest;whiteSpace=wrap;html=1;" vertex="1" parent="Xz2xReRFm8YaMoCnnHiE-26">
          <mxGeometry y="26" width="400" height="26" as="geometry" />
        </mxCell>
        <mxCell id="Xz2xReRFm8YaMoCnnHiE-31" value="# mCertVerifier: RpcCertificateVerifier" style="text;strokeColor=none;fillColor=none;align=left;verticalAlign=top;spacingLeft=4;spacingRight=4;overflow=hidden;rotatable=0;points=[[0,0.5],[1,0.5]];portConstraint=eastwest;whiteSpace=wrap;html=1;" vertex="1" parent="Xz2xReRFm8YaMoCnnHiE-26">
          <mxGeometry y="52" width="400" height="26" as="geometry" />
        </mxCell>
        <mxCell id="Xz2xReRFm8YaMoCnnHiE-28" value="" style="line;strokeWidth=1;fillColor=none;align=left;verticalAlign=middle;spacingTop=-1;spacingLeft=3;spacingRight=3;rotatable=0;labelPosition=right;points=[];portConstraint=eastwest;strokeColor=inherit;" vertex="1" parent="Xz2xReRFm8YaMoCnnHiE-26">
          <mxGeometry y="78" width="400" height="8" as="geometry" />
        </mxCell>
        <mxCell id="Xz2xReRFm8YaMoCnnHiE-29" value="+&amp;nbsp;&lt;span style=&quot;background-color: initial;&quot;&gt;static std::unique_ptr&amp;lt;RpcTransportCtxTls&amp;gt; create(&lt;/span&gt;&lt;div&gt;&amp;nbsp; &amp;nbsp; &amp;nbsp; &amp;nbsp; &amp;nbsp; &amp;nbsp; std::shared_ptr&amp;lt;RpcCertificateVerifier&amp;gt; verifier, RpcAuth* auth);&lt;/div&gt;" style="text;strokeColor=none;fillColor=none;align=left;verticalAlign=top;spacingLeft=4;spacingRight=4;overflow=hidden;rotatable=0;points=[[0,0.5],[1,0.5]];portConstraint=eastwest;whiteSpace=wrap;html=1;" vertex="1" parent="Xz2xReRFm8YaMoCnnHiE-26">
          <mxGeometry y="86" width="400" height="40" as="geometry" />
        </mxCell>
        <mxCell id="Xz2xReRFm8YaMoCnnHiE-37" value="#&amp;nbsp;static ssl_verify_result_t sslCustomVerify(SSL* ssl, uint8_t* outAlert);" style="text;strokeColor=none;fillColor=none;align=left;verticalAlign=top;spacingLeft=4;spacingRight=4;overflow=hidden;rotatable=0;points=[[0,0.5],[1,0.5]];portConstraint=eastwest;whiteSpace=wrap;html=1;" vertex="1" parent="Xz2xReRFm8YaMoCnnHiE-26">
          <mxGeometry y="126" width="400" height="24" as="geometry" />
        </mxCell>
        <mxCell id="Xz2xReRFm8YaMoCnnHiE-39" value="#&amp;nbsp;virtual void preHandshake(Ssl* ssl) const = 0;" style="text;strokeColor=none;fillColor=none;align=left;verticalAlign=top;spacingLeft=4;spacingRight=4;overflow=hidden;rotatable=0;points=[[0,0.5],[1,0.5]];portConstraint=eastwest;whiteSpace=wrap;html=1;" vertex="1" parent="Xz2xReRFm8YaMoCnnHiE-26">
          <mxGeometry y="150" width="400" height="24" as="geometry" />
        </mxCell>
        <mxCell id="Xz2xReRFm8YaMoCnnHiE-30" value="" style="endArrow=block;dashed=1;endFill=0;endSize=12;html=1;rounded=0;entryX=0.489;entryY=1.088;entryDx=0;entryDy=0;entryPerimeter=0;exitX=0.5;exitY=0;exitDx=0;exitDy=0;" edge="1" parent="1" source="Xz2xReRFm8YaMoCnnHiE-26" target="Xz2xReRFm8YaMoCnnHiE-24">
          <mxGeometry width="160" relative="1" as="geometry">
            <mxPoint x="2347" y="342" as="sourcePoint" />
            <mxPoint x="2351" y="241" as="targetPoint" />
          </mxGeometry>
        </mxCell>
        <mxCell id="Xz2xReRFm8YaMoCnnHiE-32" value="RpcCertificateVerifier" style="swimlane;fontStyle=1;align=center;verticalAlign=top;childLayout=stackLayout;horizontal=1;startSize=26;horizontalStack=0;resizeParent=1;resizeParentMax=0;resizeLast=0;collapsible=1;marginBottom=0;whiteSpace=wrap;html=1;" vertex="1" parent="1">
          <mxGeometry x="2060" y="470" width="340" height="52" as="geometry" />
        </mxCell>
        <mxCell id="Xz2xReRFm8YaMoCnnHiE-35" value="+&amp;nbsp;virtual status_t verify(const SSL* ssl, uint8_t* outAlert) = 0;" style="text;strokeColor=none;fillColor=none;align=left;verticalAlign=top;spacingLeft=4;spacingRight=4;overflow=hidden;rotatable=0;points=[[0,0.5],[1,0.5]];portConstraint=eastwest;whiteSpace=wrap;html=1;" vertex="1" parent="Xz2xReRFm8YaMoCnnHiE-32">
          <mxGeometry y="26" width="340" height="26" as="geometry" />
        </mxCell>
        <mxCell id="Xz2xReRFm8YaMoCnnHiE-36" value="Use" style="endArrow=open;endSize=12;dashed=1;html=1;rounded=0;exitX=1;exitY=0.5;exitDx=0;exitDy=0;entryX=0.5;entryY=0;entryDx=0;entryDy=0;" edge="1" parent="1" source="Xz2xReRFm8YaMoCnnHiE-29" target="Xz2xReRFm8YaMoCnnHiE-32">
          <mxGeometry width="160" relative="1" as="geometry">
            <mxPoint x="1980" y="530" as="sourcePoint" />
            <mxPoint x="2140" y="530" as="targetPoint" />
          </mxGeometry>
        </mxCell>
        <mxCell id="Xz2xReRFm8YaMoCnnHiE-44" value="RpcTransport" style="swimlane;fontStyle=1;align=center;verticalAlign=top;childLayout=stackLayout;horizontal=1;startSize=26;horizontalStack=0;resizeParent=1;resizeParentMax=0;resizeLast=0;collapsible=1;marginBottom=0;whiteSpace=wrap;html=1;" vertex="1" parent="1">
          <mxGeometry x="1654" y="-500" width="530" height="240" as="geometry" />
        </mxCell>
        <mxCell id="Xz2xReRFm8YaMoCnnHiE-50" value="&lt;div&gt;+&amp;nbsp;[[nodiscard]] virtual status_t pollRead(void) = 0;&lt;/div&gt;" style="text;strokeColor=none;fillColor=none;align=left;verticalAlign=top;spacingLeft=4;spacingRight=4;overflow=hidden;rotatable=0;points=[[0,0.5],[1,0.5]];portConstraint=eastwest;whiteSpace=wrap;html=1;" vertex="1" parent="Xz2xReRFm8YaMoCnnHiE-44">
          <mxGeometry y="26" width="530" height="24" as="geometry" />
        </mxCell>
        <mxCell id="Xz2xReRFm8YaMoCnnHiE-47" value="+&amp;nbsp;&lt;span style=&quot;background-color: initial;&quot;&gt;[[nodiscard]] virtual status_t interruptableWriteFully(&lt;/span&gt;&lt;div&gt;&amp;nbsp; &amp;nbsp; &amp;nbsp; &amp;nbsp; &amp;nbsp; &amp;nbsp; FdTrigger *fdTrigger, iovec *iovs, int niovs,&lt;/div&gt;&lt;div&gt;&amp;nbsp; &amp;nbsp; &amp;nbsp; &amp;nbsp; &amp;nbsp; &amp;nbsp; const std::optional&amp;lt;android::base::function_ref&amp;lt;status_t()&amp;gt;&amp;gt; &amp;amp;altPoll,&lt;/div&gt;&lt;div&gt;&amp;nbsp; &amp;nbsp; &amp;nbsp; &amp;nbsp; &amp;nbsp; &amp;nbsp; const std::vector&amp;lt;std::variant&amp;lt;base::unique_fd, base::borrowed_fd&amp;gt;&amp;gt; *ancillaryFds) = 0;&lt;/div&gt;&lt;div&gt;&lt;br&gt;&lt;/div&gt;" style="text;strokeColor=none;fillColor=none;align=left;verticalAlign=top;spacingLeft=4;spacingRight=4;overflow=hidden;rotatable=0;points=[[0,0.5],[1,0.5]];portConstraint=eastwest;whiteSpace=wrap;html=1;" vertex="1" parent="Xz2xReRFm8YaMoCnnHiE-44">
          <mxGeometry y="50" width="530" height="80" as="geometry" />
        </mxCell>
        <mxCell id="Xz2xReRFm8YaMoCnnHiE-48" value="&lt;div&gt;+&amp;nbsp;&lt;span style=&quot;background-color: initial;&quot;&gt;[[nodiscard]] virtual status_t interruptableReadFully(&lt;/span&gt;&lt;/div&gt;&lt;div&gt;&amp;nbsp; &amp;nbsp; &amp;nbsp; &amp;nbsp; &amp;nbsp; &amp;nbsp; FdTrigger *fdTrigger, iovec *iovs, int niovs,&lt;/div&gt;&lt;div&gt;&amp;nbsp; &amp;nbsp; &amp;nbsp; &amp;nbsp; &amp;nbsp; &amp;nbsp; const std::optional&amp;lt;android::base::function_ref&amp;lt;status_t()&amp;gt;&amp;gt; &amp;amp;altPoll,&lt;/div&gt;&lt;div&gt;&amp;nbsp; &amp;nbsp; &amp;nbsp; &amp;nbsp; &amp;nbsp; &amp;nbsp; std::vector&amp;lt;std::variant&amp;lt;base::unique_fd, base::borrowed_fd&amp;gt;&amp;gt; *ancillaryFds) = 0;&lt;/div&gt;&lt;div&gt;&lt;br&gt;&lt;/div&gt;" style="text;strokeColor=none;fillColor=none;align=left;verticalAlign=top;spacingLeft=4;spacingRight=4;overflow=hidden;rotatable=0;points=[[0,0.5],[1,0.5]];portConstraint=eastwest;whiteSpace=wrap;html=1;" vertex="1" parent="Xz2xReRFm8YaMoCnnHiE-44">
          <mxGeometry y="130" width="530" height="80" as="geometry" />
        </mxCell>
        <mxCell id="Xz2xReRFm8YaMoCnnHiE-49" value="&lt;div&gt;+ [[nodiscard]] virtual bool isWaiting() = 0;&lt;br&gt;&lt;/div&gt;" style="text;strokeColor=none;fillColor=none;align=left;verticalAlign=top;spacingLeft=4;spacingRight=4;overflow=hidden;rotatable=0;points=[[0,0.5],[1,0.5]];portConstraint=eastwest;whiteSpace=wrap;html=1;" vertex="1" parent="Xz2xReRFm8YaMoCnnHiE-44">
          <mxGeometry y="210" width="530" height="30" as="geometry" />
        </mxCell>
        <mxCell id="Xz2xReRFm8YaMoCnnHiE-52" value="RpcTransportTls" style="swimlane;fontStyle=1;align=center;verticalAlign=top;childLayout=stackLayout;horizontal=1;startSize=26;horizontalStack=0;resizeParent=1;resizeParentMax=0;resizeLast=0;collapsible=1;marginBottom=0;whiteSpace=wrap;html=1;" vertex="1" parent="1">
          <mxGeometry x="1794" y="-160" width="240" height="86" as="geometry" />
        </mxCell>
        <mxCell id="Xz2xReRFm8YaMoCnnHiE-53" value="-&amp;nbsp;android::RpcTransportFd mSocket;" style="text;strokeColor=none;fillColor=none;align=left;verticalAlign=top;spacingLeft=4;spacingRight=4;overflow=hidden;rotatable=0;points=[[0,0.5],[1,0.5]];portConstraint=eastwest;whiteSpace=wrap;html=1;" vertex="1" parent="Xz2xReRFm8YaMoCnnHiE-52">
          <mxGeometry y="26" width="240" height="26" as="geometry" />
        </mxCell>
        <mxCell id="Xz2xReRFm8YaMoCnnHiE-54" value="" style="line;strokeWidth=1;fillColor=none;align=left;verticalAlign=middle;spacingTop=-1;spacingLeft=3;spacingRight=3;rotatable=0;labelPosition=right;points=[];portConstraint=eastwest;strokeColor=inherit;" vertex="1" parent="Xz2xReRFm8YaMoCnnHiE-52">
          <mxGeometry y="52" width="240" height="8" as="geometry" />
        </mxCell>
        <mxCell id="Xz2xReRFm8YaMoCnnHiE-55" value="-&amp;nbsp;Ssl mSsl;" style="text;strokeColor=none;fillColor=none;align=left;verticalAlign=top;spacingLeft=4;spacingRight=4;overflow=hidden;rotatable=0;points=[[0,0.5],[1,0.5]];portConstraint=eastwest;whiteSpace=wrap;html=1;" vertex="1" parent="Xz2xReRFm8YaMoCnnHiE-52">
          <mxGeometry y="60" width="240" height="26" as="geometry" />
        </mxCell>
        <mxCell id="Xz2xReRFm8YaMoCnnHiE-61" value="Extends" style="endArrow=block;endSize=16;endFill=0;html=1;rounded=0;exitX=0.5;exitY=0;exitDx=0;exitDy=0;entryX=0.49;entryY=1.054;entryDx=0;entryDy=0;entryPerimeter=0;" edge="1" parent="1" source="Xz2xReRFm8YaMoCnnHiE-52" target="Xz2xReRFm8YaMoCnnHiE-49">
          <mxGeometry width="160" relative="1" as="geometry">
            <mxPoint x="1894" y="-110" as="sourcePoint" />
            <mxPoint x="2054" y="-110" as="targetPoint" />
          </mxGeometry>
        </mxCell>
        <mxCell id="Xz2xReRFm8YaMoCnnHiE-62" value="RpcTransportCtxTlsServer" style="swimlane;fontStyle=1;align=center;verticalAlign=top;childLayout=stackLayout;horizontal=1;startSize=26;horizontalStack=0;resizeParent=1;resizeParentMax=0;resizeLast=0;collapsible=1;marginBottom=0;whiteSpace=wrap;html=1;" vertex="1" parent="1">
          <mxGeometry x="1620" y="560" width="190" height="70" as="geometry" />
        </mxCell>
        <mxCell id="Xz2xReRFm8YaMoCnnHiE-65" value="#&amp;nbsp;virtual void preHandshake(Ssl* ssl) const = 0;" style="text;strokeColor=none;fillColor=none;align=left;verticalAlign=top;spacingLeft=4;spacingRight=4;overflow=hidden;rotatable=0;points=[[0,0.5],[1,0.5]];portConstraint=eastwest;whiteSpace=wrap;html=1;" vertex="1" parent="Xz2xReRFm8YaMoCnnHiE-62">
          <mxGeometry y="26" width="190" height="44" as="geometry" />
        </mxCell>
        <mxCell id="Xz2xReRFm8YaMoCnnHiE-66" value="RpcTransportCtxTlsClient" style="swimlane;fontStyle=1;align=center;verticalAlign=top;childLayout=stackLayout;horizontal=1;startSize=26;horizontalStack=0;resizeParent=1;resizeParentMax=0;resizeLast=0;collapsible=1;marginBottom=0;whiteSpace=wrap;html=1;" vertex="1" parent="1">
          <mxGeometry x="1840" y="560" width="200" height="70" as="geometry" />
        </mxCell>
        <mxCell id="Xz2xReRFm8YaMoCnnHiE-69" value="#&amp;nbsp;virtual void preHandshake(Ssl* ssl) const = 0;" style="text;strokeColor=none;fillColor=none;align=left;verticalAlign=top;spacingLeft=4;spacingRight=4;overflow=hidden;rotatable=0;points=[[0,0.5],[1,0.5]];portConstraint=eastwest;whiteSpace=wrap;html=1;" vertex="1" parent="Xz2xReRFm8YaMoCnnHiE-66">
          <mxGeometry y="26" width="200" height="44" as="geometry" />
        </mxCell>
        <mxCell id="Xz2xReRFm8YaMoCnnHiE-70" value="" style="endArrow=block;dashed=1;endFill=0;endSize=12;html=1;rounded=0;entryX=0.513;entryY=0.926;entryDx=0;entryDy=0;entryPerimeter=0;exitX=0.5;exitY=0;exitDx=0;exitDy=0;" edge="1" parent="1" source="Xz2xReRFm8YaMoCnnHiE-62" target="Xz2xReRFm8YaMoCnnHiE-39">
          <mxGeometry width="160" relative="1" as="geometry">
            <mxPoint x="1840" y="342" as="sourcePoint" />
            <mxPoint x="1836" y="210" as="targetPoint" />
          </mxGeometry>
        </mxCell>
        <mxCell id="Xz2xReRFm8YaMoCnnHiE-71" value="" style="endArrow=block;dashed=1;endFill=0;endSize=12;html=1;rounded=0;entryX=0.51;entryY=0.88;entryDx=0;entryDy=0;entryPerimeter=0;exitX=0.5;exitY=0;exitDx=0;exitDy=0;" edge="1" parent="1" source="Xz2xReRFm8YaMoCnnHiE-66" target="Xz2xReRFm8YaMoCnnHiE-39">
          <mxGeometry width="160" relative="1" as="geometry">
            <mxPoint x="1685" y="584" as="sourcePoint" />
            <mxPoint x="1845" y="514" as="targetPoint" />
          </mxGeometry>
        </mxCell>
        <mxCell id="Xz2xReRFm8YaMoCnnHiE-72" value="Use" style="endArrow=open;endSize=12;dashed=1;html=1;rounded=0;exitX=0;exitY=0.5;exitDx=0;exitDy=0;entryX=0;entryY=0.5;entryDx=0;entryDy=0;" edge="1" parent="1" source="Xz2xReRFm8YaMoCnnHiE-23" target="Xz2xReRFm8YaMoCnnHiE-49">
          <mxGeometry width="160" relative="1" as="geometry">
            <mxPoint x="2180" y="199" as="sourcePoint" />
            <mxPoint x="2030" y="186" as="targetPoint" />
          </mxGeometry>
        </mxCell>
        <mxCell id="Xz2xReRFm8YaMoCnnHiE-73" value="RpcSocketAddress" style="swimlane;fontStyle=1;align=center;verticalAlign=top;childLayout=stackLayout;horizontal=1;startSize=26;horizontalStack=0;resizeParent=1;resizeParentMax=0;resizeLast=0;collapsible=1;marginBottom=0;whiteSpace=wrap;html=1;" vertex="1" parent="1">
          <mxGeometry x="825" y="-330" width="270" height="78" as="geometry" />
        </mxCell>
        <mxCell id="Xz2xReRFm8YaMoCnnHiE-76" value="+&amp;nbsp;virtual const sockaddr* addr() const = 0;" style="text;strokeColor=none;fillColor=none;align=left;verticalAlign=top;spacingLeft=4;spacingRight=4;overflow=hidden;rotatable=0;points=[[0,0.5],[1,0.5]];portConstraint=eastwest;whiteSpace=wrap;html=1;" vertex="1" parent="Xz2xReRFm8YaMoCnnHiE-73">
          <mxGeometry y="26" width="270" height="26" as="geometry" />
        </mxCell>
        <mxCell id="Xz2xReRFm8YaMoCnnHiE-77" value="+&amp;nbsp;virtual size_t addrSize() const = 0;" style="text;strokeColor=none;fillColor=none;align=left;verticalAlign=top;spacingLeft=4;spacingRight=4;overflow=hidden;rotatable=0;points=[[0,0.5],[1,0.5]];portConstraint=eastwest;whiteSpace=wrap;html=1;" vertex="1" parent="Xz2xReRFm8YaMoCnnHiE-73">
          <mxGeometry y="52" width="270" height="26" as="geometry" />
        </mxCell>
        <mxCell id="Xz2xReRFm8YaMoCnnHiE-79" value="&lt;p style=&quot;margin:0px;margin-top:4px;text-align:center;&quot;&gt;&lt;b&gt;VsockSocketAddress&lt;/b&gt;&lt;br&gt;&lt;/p&gt;" style="verticalAlign=top;align=left;overflow=fill;html=1;whiteSpace=wrap;" vertex="1" parent="1">
          <mxGeometry x="885" y="-200" width="140" height="60" as="geometry" />
        </mxCell>
        <mxCell id="Xz2xReRFm8YaMoCnnHiE-80" value="&lt;p style=&quot;margin:0px;margin-top:4px;text-align:center;&quot;&gt;&lt;b&gt;InetSocketAddress&lt;/b&gt;&lt;br&gt;&lt;/p&gt;" style="verticalAlign=top;align=left;overflow=fill;html=1;whiteSpace=wrap;" vertex="1" parent="1">
          <mxGeometry x="1045" y="-200" width="140" height="60" as="geometry" />
        </mxCell>
        <mxCell id="Xz2xReRFm8YaMoCnnHiE-81" value="Extends" style="endArrow=block;endSize=16;endFill=0;html=1;rounded=0;exitX=0.5;exitY=0;exitDx=0;exitDy=0;" edge="1" parent="1" source="Xz2xReRFm8YaMoCnnHiE-85" target="Xz2xReRFm8YaMoCnnHiE-77">
          <mxGeometry width="160" relative="1" as="geometry">
            <mxPoint x="790" y="-200.00000000000023" as="sourcePoint" />
            <mxPoint x="955" y="-250" as="targetPoint" />
          </mxGeometry>
        </mxCell>
        <mxCell id="Xz2xReRFm8YaMoCnnHiE-82" value="Extends" style="endArrow=block;endSize=16;endFill=0;html=1;rounded=0;exitX=0.5;exitY=0;exitDx=0;exitDy=0;" edge="1" parent="1" source="Xz2xReRFm8YaMoCnnHiE-79" target="Xz2xReRFm8YaMoCnnHiE-77">
          <mxGeometry width="160" relative="1" as="geometry">
            <mxPoint x="800" y="-190" as="sourcePoint" />
            <mxPoint x="936" y="-242" as="targetPoint" />
          </mxGeometry>
        </mxCell>
        <mxCell id="Xz2xReRFm8YaMoCnnHiE-83" value="Extends" style="endArrow=block;endSize=16;endFill=0;html=1;rounded=0;exitX=0.5;exitY=0;exitDx=0;exitDy=0;entryX=0.732;entryY=1.051;entryDx=0;entryDy=0;entryPerimeter=0;" edge="1" parent="1" source="Xz2xReRFm8YaMoCnnHiE-80" target="Xz2xReRFm8YaMoCnnHiE-77">
          <mxGeometry width="160" relative="1" as="geometry">
            <mxPoint x="965" y="-190" as="sourcePoint" />
            <mxPoint x="969" y="-242" as="targetPoint" />
          </mxGeometry>
        </mxCell>
        <mxCell id="Xz2xReRFm8YaMoCnnHiE-84" value="Use" style="endArrow=open;endSize=12;dashed=1;html=1;rounded=0;exitX=0.5;exitY=0;exitDx=0;exitDy=0;entryX=1;entryY=0.5;entryDx=0;entryDy=0;" edge="1" parent="1" source="p69GbGtiznkZSxi_15MH-32" target="Xz2xReRFm8YaMoCnnHiE-76">
          <mxGeometry width="160" relative="1" as="geometry">
            <mxPoint x="880" y="-70" as="sourcePoint" />
            <mxPoint x="1040" y="-70" as="targetPoint" />
          </mxGeometry>
        </mxCell>
        <mxCell id="Xz2xReRFm8YaMoCnnHiE-85" value="UnixSocketAddress" style="swimlane;fontStyle=1;align=center;verticalAlign=top;childLayout=stackLayout;horizontal=1;startSize=26;horizontalStack=0;resizeParent=1;resizeParentMax=0;resizeLast=0;collapsible=1;marginBottom=0;whiteSpace=wrap;html=1;" vertex="1" parent="1">
          <mxGeometry x="700" y="-200" width="160" height="52" as="geometry" />
        </mxCell>
        <mxCell id="Xz2xReRFm8YaMoCnnHiE-86" value="+ sockaddr_un mAddr" style="text;strokeColor=none;fillColor=none;align=left;verticalAlign=top;spacingLeft=4;spacingRight=4;overflow=hidden;rotatable=0;points=[[0,0.5],[1,0.5]];portConstraint=eastwest;whiteSpace=wrap;html=1;" vertex="1" parent="Xz2xReRFm8YaMoCnnHiE-85">
          <mxGeometry y="26" width="160" height="26" as="geometry" />
        </mxCell>
        <mxCell id="Xz2xReRFm8YaMoCnnHiE-89" value="RpcTransportFd" style="swimlane;fontStyle=1;align=center;verticalAlign=top;childLayout=stackLayout;horizontal=1;startSize=26;horizontalStack=0;resizeParent=1;resizeParentMax=0;resizeLast=0;collapsible=1;marginBottom=0;whiteSpace=wrap;html=1;" vertex="1" parent="1">
          <mxGeometry x="2260" y="-390" width="230" height="138" as="geometry" />
        </mxCell>
        <mxCell id="Xz2xReRFm8YaMoCnnHiE-90" value="+ std::unique_fd: fd" style="text;strokeColor=none;fillColor=none;align=left;verticalAlign=top;spacingLeft=4;spacingRight=4;overflow=hidden;rotatable=0;points=[[0,0.5],[1,0.5]];portConstraint=eastwest;whiteSpace=wrap;html=1;" vertex="1" parent="Xz2xReRFm8YaMoCnnHiE-89">
          <mxGeometry y="26" width="230" height="26" as="geometry" />
        </mxCell>
        <mxCell id="Xz2xReRFm8YaMoCnnHiE-91" value="" style="line;strokeWidth=1;fillColor=none;align=left;verticalAlign=middle;spacingTop=-1;spacingLeft=3;spacingRight=3;rotatable=0;labelPosition=right;points=[];portConstraint=eastwest;strokeColor=inherit;" vertex="1" parent="Xz2xReRFm8YaMoCnnHiE-89">
          <mxGeometry y="52" width="230" height="8" as="geometry" />
        </mxCell>
        <mxCell id="Xz2xReRFm8YaMoCnnHiE-92" value="+ bool isInPollingState()&amp;nbsp;" style="text;strokeColor=none;fillColor=none;align=left;verticalAlign=top;spacingLeft=4;spacingRight=4;overflow=hidden;rotatable=0;points=[[0,0.5],[1,0.5]];portConstraint=eastwest;whiteSpace=wrap;html=1;" vertex="1" parent="Xz2xReRFm8YaMoCnnHiE-89">
          <mxGeometry y="60" width="230" height="26" as="geometry" />
        </mxCell>
        <mxCell id="Xz2xReRFm8YaMoCnnHiE-93" value="-&amp;nbsp;void setPollingState(bool state)" style="text;strokeColor=none;fillColor=none;align=left;verticalAlign=top;spacingLeft=4;spacingRight=4;overflow=hidden;rotatable=0;points=[[0,0.5],[1,0.5]];portConstraint=eastwest;whiteSpace=wrap;html=1;" vertex="1" parent="Xz2xReRFm8YaMoCnnHiE-89">
          <mxGeometry y="86" width="230" height="26" as="geometry" />
        </mxCell>
        <mxCell id="Xz2xReRFm8YaMoCnnHiE-94" value="-&amp;nbsp;mutable bool isPolling{false}" style="text;strokeColor=none;fillColor=none;align=left;verticalAlign=top;spacingLeft=4;spacingRight=4;overflow=hidden;rotatable=0;points=[[0,0.5],[1,0.5]];portConstraint=eastwest;whiteSpace=wrap;html=1;" vertex="1" parent="Xz2xReRFm8YaMoCnnHiE-89">
          <mxGeometry y="112" width="230" height="26" as="geometry" />
        </mxCell>
        <mxCell id="Xz2xReRFm8YaMoCnnHiE-95" value="RpcMaybeThread" style="swimlane;fontStyle=1;align=center;verticalAlign=top;childLayout=stackLayout;horizontal=1;startSize=26;horizontalStack=0;resizeParent=1;resizeParentMax=0;resizeLast=0;collapsible=1;marginBottom=0;whiteSpace=wrap;html=1;" vertex="1" parent="1">
          <mxGeometry x="1300" y="-330" width="160" height="86" as="geometry" />
        </mxCell>
        <mxCell id="Xz2xReRFm8YaMoCnnHiE-96" value="+ field: type" style="text;strokeColor=none;fillColor=none;align=left;verticalAlign=top;spacingLeft=4;spacingRight=4;overflow=hidden;rotatable=0;points=[[0,0.5],[1,0.5]];portConstraint=eastwest;whiteSpace=wrap;html=1;" vertex="1" parent="Xz2xReRFm8YaMoCnnHiE-95">
          <mxGeometry y="26" width="160" height="26" as="geometry" />
        </mxCell>
        <mxCell id="Xz2xReRFm8YaMoCnnHiE-97" value="" style="line;strokeWidth=1;fillColor=none;align=left;verticalAlign=middle;spacingTop=-1;spacingLeft=3;spacingRight=3;rotatable=0;labelPosition=right;points=[];portConstraint=eastwest;strokeColor=inherit;" vertex="1" parent="Xz2xReRFm8YaMoCnnHiE-95">
          <mxGeometry y="52" width="160" height="8" as="geometry" />
        </mxCell>
        <mxCell id="Xz2xReRFm8YaMoCnnHiE-98" value="+ method(type): type" style="text;strokeColor=none;fillColor=none;align=left;verticalAlign=top;spacingLeft=4;spacingRight=4;overflow=hidden;rotatable=0;points=[[0,0.5],[1,0.5]];portConstraint=eastwest;whiteSpace=wrap;html=1;" vertex="1" parent="Xz2xReRFm8YaMoCnnHiE-95">
          <mxGeometry y="60" width="160" height="26" as="geometry" />
        </mxCell>
        <mxCell id="Xz2xReRFm8YaMoCnnHiE-99" value="FdTrigger" style="swimlane;fontStyle=1;align=center;verticalAlign=top;childLayout=stackLayout;horizontal=1;startSize=26;horizontalStack=0;resizeParent=1;resizeParentMax=0;resizeLast=0;collapsible=1;marginBottom=0;whiteSpace=wrap;html=1;" vertex="1" parent="1">
          <mxGeometry x="190" y="-340" width="260" height="220" as="geometry" />
        </mxCell>
        <mxCell id="Xz2xReRFm8YaMoCnnHiE-100" value="- mWrite: std::unique_fd" style="text;strokeColor=none;fillColor=none;align=left;verticalAlign=top;spacingLeft=4;spacingRight=4;overflow=hidden;rotatable=0;points=[[0,0.5],[1,0.5]];portConstraint=eastwest;whiteSpace=wrap;html=1;" vertex="1" parent="Xz2xReRFm8YaMoCnnHiE-99">
          <mxGeometry y="26" width="260" height="26" as="geometry" />
        </mxCell>
        <mxCell id="Xz2xReRFm8YaMoCnnHiE-103" value="- mRead: std::unique_fd" style="text;strokeColor=none;fillColor=none;align=left;verticalAlign=top;spacingLeft=4;spacingRight=4;overflow=hidden;rotatable=0;points=[[0,0.5],[1,0.5]];portConstraint=eastwest;whiteSpace=wrap;html=1;" vertex="1" parent="Xz2xReRFm8YaMoCnnHiE-99">
          <mxGeometry y="52" width="260" height="26" as="geometry" />
        </mxCell>
        <mxCell id="Xz2xReRFm8YaMoCnnHiE-101" value="" style="line;strokeWidth=1;fillColor=none;align=left;verticalAlign=middle;spacingTop=-1;spacingLeft=3;spacingRight=3;rotatable=0;labelPosition=right;points=[];portConstraint=eastwest;strokeColor=inherit;" vertex="1" parent="Xz2xReRFm8YaMoCnnHiE-99">
          <mxGeometry y="78" width="260" height="8" as="geometry" />
        </mxCell>
        <mxCell id="Xz2xReRFm8YaMoCnnHiE-102" value="_&amp;nbsp;static std::unique_ptr&amp;lt;FdTrigger&amp;gt; make();" style="text;strokeColor=none;fillColor=none;align=left;verticalAlign=top;spacingLeft=4;spacingRight=4;overflow=hidden;rotatable=0;points=[[0,0.5],[1,0.5]];portConstraint=eastwest;whiteSpace=wrap;html=1;" vertex="1" parent="Xz2xReRFm8YaMoCnnHiE-99">
          <mxGeometry y="86" width="260" height="26" as="geometry" />
        </mxCell>
        <mxCell id="Xz2xReRFm8YaMoCnnHiE-104" value="+&amp;nbsp;void trigger();" style="text;strokeColor=none;fillColor=none;align=left;verticalAlign=top;spacingLeft=4;spacingRight=4;overflow=hidden;rotatable=0;points=[[0,0.5],[1,0.5]];portConstraint=eastwest;whiteSpace=wrap;html=1;" vertex="1" parent="Xz2xReRFm8YaMoCnnHiE-99">
          <mxGeometry y="112" width="260" height="26" as="geometry" />
        </mxCell>
        <mxCell id="Xz2xReRFm8YaMoCnnHiE-105" value="+&amp;nbsp;[[nodiscard]] bool isTriggered();" style="text;strokeColor=none;fillColor=none;align=left;verticalAlign=top;spacingLeft=4;spacingRight=4;overflow=hidden;rotatable=0;points=[[0,0.5],[1,0.5]];portConstraint=eastwest;whiteSpace=wrap;html=1;" vertex="1" parent="Xz2xReRFm8YaMoCnnHiE-99">
          <mxGeometry y="138" width="260" height="26" as="geometry" />
        </mxCell>
        <mxCell id="Xz2xReRFm8YaMoCnnHiE-106" value="+&amp;nbsp;&lt;span style=&quot;background-color: initial;&quot;&gt;[[nodiscard]] status_t triggerablePoll(const android::RpcTransportFd&amp;amp; transportFd,&lt;/span&gt;&lt;div&gt;&amp;nbsp; &amp;nbsp; &amp;nbsp; &amp;nbsp; &amp;nbsp; &amp;nbsp; &amp;nbsp; &amp;nbsp; &amp;nbsp; &amp;nbsp; &amp;nbsp; &amp;nbsp; &amp;nbsp; &amp;nbsp; &amp;nbsp; &amp;nbsp; &amp;nbsp; &amp;nbsp; &amp;nbsp; &amp;nbsp; &amp;nbsp; &amp;nbsp;int16_t event);&lt;/div&gt;" style="text;strokeColor=none;fillColor=none;align=left;verticalAlign=top;spacingLeft=4;spacingRight=4;overflow=hidden;rotatable=0;points=[[0,0.5],[1,0.5]];portConstraint=eastwest;whiteSpace=wrap;html=1;" vertex="1" parent="Xz2xReRFm8YaMoCnnHiE-99">
          <mxGeometry y="164" width="260" height="56" as="geometry" />
        </mxCell>
      </root>
    </mxGraphModel>
  </diagram>
</mxfile>
